<mxfile host="Electron" modified="2024-04-21T15:22:31.449Z" agent="Mozilla/5.0 (Windows NT 10.0; Win64; x64) AppleWebKit/537.36 (KHTML, like Gecko) draw.io/24.1.0 Chrome/120.0.6099.109 Electron/28.1.0 Safari/537.36" etag="AMINLdjmQNES4H628fP7" version="24.1.0" type="device">
  <diagram name="Página-1" id="qLk8mrIIAcr9vPYLqLGH">
    <mxGraphModel dx="989" dy="610" grid="1" gridSize="10" guides="1" tooltips="1" connect="1" arrows="1" fold="1" page="1" pageScale="1" pageWidth="827" pageHeight="1169" math="0" shadow="0">
      <root>
        <mxCell id="0" />
        <mxCell id="1" parent="0" />
        <mxCell id="1abh_bCQiPCxr0m5jgYK-60" value="" style="group" parent="1" vertex="1" connectable="0">
          <mxGeometry x="20" y="10" width="321" height="770" as="geometry" />
        </mxCell>
        <mxCell id="1abh_bCQiPCxr0m5jgYK-20" value="" style="group" parent="1abh_bCQiPCxr0m5jgYK-60" vertex="1" connectable="0">
          <mxGeometry x="25.5" y="150" width="269" height="110" as="geometry" />
        </mxCell>
        <mxCell id="1abh_bCQiPCxr0m5jgYK-8" value="" style="edgeStyle=orthogonalEdgeStyle;rounded=0;orthogonalLoop=1;jettySize=auto;html=1;" parent="1abh_bCQiPCxr0m5jgYK-20" source="1abh_bCQiPCxr0m5jgYK-10" edge="1">
          <mxGeometry relative="1" as="geometry">
            <mxPoint x="135" y="110" as="targetPoint" />
          </mxGeometry>
        </mxCell>
        <mxCell id="1abh_bCQiPCxr0m5jgYK-9" value="2) POR QUÊ?" style="edgeLabel;html=1;align=center;verticalAlign=middle;resizable=0;points=[];fontStyle=1;fontSize=13;labelBorderColor=none;" parent="1abh_bCQiPCxr0m5jgYK-8" vertex="1" connectable="0">
          <mxGeometry x="-0.005" y="1" relative="1" as="geometry">
            <mxPoint as="offset" />
          </mxGeometry>
        </mxCell>
        <mxCell id="1abh_bCQiPCxr0m5jgYK-10" value="&lt;p style=&quot;line-height: 120%; padding: 5px;&quot;&gt;&lt;font style=&quot;font-size: 17px;&quot;&gt;O retrabalho é frequente&lt;/font&gt;&lt;/p&gt;&lt;p&gt;&lt;/p&gt;" style="rounded=1;whiteSpace=wrap;html=1;" parent="1abh_bCQiPCxr0m5jgYK-20" vertex="1">
          <mxGeometry width="269" height="50" as="geometry" />
        </mxCell>
        <mxCell id="1abh_bCQiPCxr0m5jgYK-11" style="edgeStyle=orthogonalEdgeStyle;rounded=0;orthogonalLoop=1;jettySize=auto;html=1;exitX=0.5;exitY=1;exitDx=0;exitDy=0;" parent="1abh_bCQiPCxr0m5jgYK-20" source="1abh_bCQiPCxr0m5jgYK-10" target="1abh_bCQiPCxr0m5jgYK-10" edge="1">
          <mxGeometry relative="1" as="geometry" />
        </mxCell>
        <mxCell id="1abh_bCQiPCxr0m5jgYK-12" style="edgeStyle=orthogonalEdgeStyle;rounded=0;orthogonalLoop=1;jettySize=auto;html=1;exitX=0.5;exitY=1;exitDx=0;exitDy=0;" parent="1abh_bCQiPCxr0m5jgYK-20" source="1abh_bCQiPCxr0m5jgYK-10" target="1abh_bCQiPCxr0m5jgYK-10" edge="1">
          <mxGeometry relative="1" as="geometry" />
        </mxCell>
        <mxCell id="1abh_bCQiPCxr0m5jgYK-21" value="" style="group" parent="1abh_bCQiPCxr0m5jgYK-60" vertex="1" connectable="0">
          <mxGeometry x="1" width="319" height="140" as="geometry" />
        </mxCell>
        <mxCell id="1abh_bCQiPCxr0m5jgYK-4" value="" style="edgeStyle=orthogonalEdgeStyle;rounded=0;orthogonalLoop=1;jettySize=auto;html=1;" parent="1abh_bCQiPCxr0m5jgYK-21" source="1abh_bCQiPCxr0m5jgYK-2" edge="1">
          <mxGeometry relative="1" as="geometry">
            <mxPoint x="159.49999999999997" y="140" as="targetPoint" />
          </mxGeometry>
        </mxCell>
        <mxCell id="1abh_bCQiPCxr0m5jgYK-2" value="&lt;p style=&quot;line-height: 120%; margin-bottom: 5px;&quot;&gt;&lt;b style=&quot;background-color: initial;&quot;&gt;&lt;font style=&quot;font-size: 18px;&quot;&gt;PROBLEMA:&lt;/font&gt;&lt;/b&gt;&lt;/p&gt;&lt;p style=&quot;line-height: 120%; padding: 5px; margin-top: 0px;&quot;&gt;&lt;span style=&quot;background-color: initial;&quot;&gt;&lt;font style=&quot;font-size: 17px;&quot;&gt;Acontecem muitos atrazos nas etapas da construção&lt;/font&gt;&lt;/span&gt;&lt;br&gt;&lt;/p&gt;&lt;p&gt;&lt;/p&gt;" style="rounded=1;whiteSpace=wrap;html=1;" parent="1abh_bCQiPCxr0m5jgYK-21" vertex="1">
          <mxGeometry width="318.99999999999994" height="90" as="geometry" />
        </mxCell>
        <mxCell id="1abh_bCQiPCxr0m5jgYK-28" value="" style="group" parent="1abh_bCQiPCxr0m5jgYK-60" vertex="1" connectable="0">
          <mxGeometry x="25.5" y="270" width="269" height="120" as="geometry" />
        </mxCell>
        <mxCell id="1abh_bCQiPCxr0m5jgYK-23" value="" style="edgeStyle=orthogonalEdgeStyle;rounded=0;orthogonalLoop=1;jettySize=auto;html=1;" parent="1abh_bCQiPCxr0m5jgYK-28" source="1abh_bCQiPCxr0m5jgYK-25" edge="1">
          <mxGeometry relative="1" as="geometry">
            <mxPoint x="135" y="120" as="targetPoint" />
          </mxGeometry>
        </mxCell>
        <mxCell id="1abh_bCQiPCxr0m5jgYK-24" value="3) POR QUÊ?" style="edgeLabel;html=1;align=center;verticalAlign=middle;resizable=0;points=[];fontStyle=1;fontSize=13;labelBorderColor=none;" parent="1abh_bCQiPCxr0m5jgYK-23" vertex="1" connectable="0">
          <mxGeometry x="-0.005" y="1" relative="1" as="geometry">
            <mxPoint as="offset" />
          </mxGeometry>
        </mxCell>
        <mxCell id="1abh_bCQiPCxr0m5jgYK-25" value="&lt;p style=&quot;line-height: 120%; padding: 5px;&quot;&gt;&lt;span style=&quot;font-size: 17px;&quot;&gt;Falta de comunicação entre os envolvidos&lt;/span&gt;&lt;/p&gt;&lt;p&gt;&lt;/p&gt;" style="rounded=1;whiteSpace=wrap;html=1;" parent="1abh_bCQiPCxr0m5jgYK-28" vertex="1">
          <mxGeometry width="269" height="60" as="geometry" />
        </mxCell>
        <mxCell id="1abh_bCQiPCxr0m5jgYK-26" style="edgeStyle=orthogonalEdgeStyle;rounded=0;orthogonalLoop=1;jettySize=auto;html=1;exitX=0.5;exitY=1;exitDx=0;exitDy=0;" parent="1abh_bCQiPCxr0m5jgYK-28" source="1abh_bCQiPCxr0m5jgYK-25" target="1abh_bCQiPCxr0m5jgYK-25" edge="1">
          <mxGeometry relative="1" as="geometry" />
        </mxCell>
        <mxCell id="1abh_bCQiPCxr0m5jgYK-27" style="edgeStyle=orthogonalEdgeStyle;rounded=0;orthogonalLoop=1;jettySize=auto;html=1;exitX=0.5;exitY=1;exitDx=0;exitDy=0;" parent="1abh_bCQiPCxr0m5jgYK-28" source="1abh_bCQiPCxr0m5jgYK-25" target="1abh_bCQiPCxr0m5jgYK-25" edge="1">
          <mxGeometry relative="1" as="geometry" />
        </mxCell>
        <mxCell id="1abh_bCQiPCxr0m5jgYK-35" value="" style="group" parent="1abh_bCQiPCxr0m5jgYK-60" vertex="1" connectable="0">
          <mxGeometry x="26" y="550" width="269" height="120" as="geometry" />
        </mxCell>
        <mxCell id="1abh_bCQiPCxr0m5jgYK-36" value="" style="edgeStyle=orthogonalEdgeStyle;rounded=0;orthogonalLoop=1;jettySize=auto;html=1;" parent="1abh_bCQiPCxr0m5jgYK-35" source="1abh_bCQiPCxr0m5jgYK-38" edge="1">
          <mxGeometry relative="1" as="geometry">
            <mxPoint x="135" y="120" as="targetPoint" />
          </mxGeometry>
        </mxCell>
        <mxCell id="1abh_bCQiPCxr0m5jgYK-37" value="5) POR QUÊ?" style="edgeLabel;html=1;align=center;verticalAlign=middle;resizable=0;points=[];fontStyle=1;fontSize=13;labelBorderColor=none;" parent="1abh_bCQiPCxr0m5jgYK-36" vertex="1" connectable="0">
          <mxGeometry x="-0.005" y="1" relative="1" as="geometry">
            <mxPoint as="offset" />
          </mxGeometry>
        </mxCell>
        <mxCell id="1abh_bCQiPCxr0m5jgYK-38" value="&lt;font style=&quot;font-size: 17px;&quot;&gt;Encontrar o meio contato é demorado&lt;/font&gt;" style="rounded=1;whiteSpace=wrap;html=1;" parent="1abh_bCQiPCxr0m5jgYK-35" vertex="1">
          <mxGeometry width="269" height="60" as="geometry" />
        </mxCell>
        <mxCell id="1abh_bCQiPCxr0m5jgYK-39" style="edgeStyle=orthogonalEdgeStyle;rounded=0;orthogonalLoop=1;jettySize=auto;html=1;exitX=0.5;exitY=1;exitDx=0;exitDy=0;" parent="1abh_bCQiPCxr0m5jgYK-35" source="1abh_bCQiPCxr0m5jgYK-38" target="1abh_bCQiPCxr0m5jgYK-38" edge="1">
          <mxGeometry relative="1" as="geometry" />
        </mxCell>
        <mxCell id="1abh_bCQiPCxr0m5jgYK-40" style="edgeStyle=orthogonalEdgeStyle;rounded=0;orthogonalLoop=1;jettySize=auto;html=1;exitX=0.5;exitY=1;exitDx=0;exitDy=0;" parent="1abh_bCQiPCxr0m5jgYK-35" source="1abh_bCQiPCxr0m5jgYK-38" target="1abh_bCQiPCxr0m5jgYK-38" edge="1">
          <mxGeometry relative="1" as="geometry" />
        </mxCell>
        <mxCell id="1abh_bCQiPCxr0m5jgYK-41" value="" style="group" parent="1abh_bCQiPCxr0m5jgYK-60" vertex="1" connectable="0">
          <mxGeometry x="26" y="400" width="269" height="140" as="geometry" />
        </mxCell>
        <mxCell id="1abh_bCQiPCxr0m5jgYK-30" value="" style="edgeStyle=orthogonalEdgeStyle;rounded=0;orthogonalLoop=1;jettySize=auto;html=1;" parent="1abh_bCQiPCxr0m5jgYK-41" source="1abh_bCQiPCxr0m5jgYK-32" edge="1">
          <mxGeometry relative="1" as="geometry">
            <mxPoint x="135" y="140" as="targetPoint" />
          </mxGeometry>
        </mxCell>
        <mxCell id="1abh_bCQiPCxr0m5jgYK-31" value="4) POR QUÊ?" style="edgeLabel;html=1;align=center;verticalAlign=middle;resizable=0;points=[];fontStyle=1;fontSize=13;labelBorderColor=none;" parent="1abh_bCQiPCxr0m5jgYK-30" vertex="1" connectable="0">
          <mxGeometry x="-0.005" y="1" relative="1" as="geometry">
            <mxPoint as="offset" />
          </mxGeometry>
        </mxCell>
        <mxCell id="1abh_bCQiPCxr0m5jgYK-32" value="&lt;p style=&quot;line-height: 120%; padding: 5px;&quot;&gt;&lt;span style=&quot;font-size: 17px;&quot;&gt;É difícil em entrar em contato com os profissionais e responsáveis&lt;/span&gt;&lt;/p&gt;&lt;p&gt;&lt;/p&gt;" style="rounded=1;whiteSpace=wrap;html=1;" parent="1abh_bCQiPCxr0m5jgYK-41" vertex="1">
          <mxGeometry width="269" height="70" as="geometry" />
        </mxCell>
        <mxCell id="1abh_bCQiPCxr0m5jgYK-33" style="edgeStyle=orthogonalEdgeStyle;rounded=0;orthogonalLoop=1;jettySize=auto;html=1;exitX=0.5;exitY=1;exitDx=0;exitDy=0;" parent="1abh_bCQiPCxr0m5jgYK-41" source="1abh_bCQiPCxr0m5jgYK-32" target="1abh_bCQiPCxr0m5jgYK-32" edge="1">
          <mxGeometry relative="1" as="geometry" />
        </mxCell>
        <mxCell id="1abh_bCQiPCxr0m5jgYK-34" style="edgeStyle=orthogonalEdgeStyle;rounded=0;orthogonalLoop=1;jettySize=auto;html=1;exitX=0.5;exitY=1;exitDx=0;exitDy=0;" parent="1abh_bCQiPCxr0m5jgYK-41" source="1abh_bCQiPCxr0m5jgYK-32" target="1abh_bCQiPCxr0m5jgYK-32" edge="1">
          <mxGeometry relative="1" as="geometry" />
        </mxCell>
        <mxCell id="1abh_bCQiPCxr0m5jgYK-57" value="&lt;p style=&quot;line-height: 120%; padding: 5px 10px; margin-bottom: 0px;&quot;&gt;&lt;b style=&quot;background-color: initial;&quot;&gt;&lt;font style=&quot;font-size: 18px;&quot;&gt;CAUSA RAIZ:&lt;/font&gt;&lt;/b&gt;&lt;span style=&quot;font-size: 17px;&quot;&gt;&lt;br&gt;&lt;/span&gt;&lt;/p&gt;&lt;p style=&quot;line-height: 120%; padding: 5px 10px; margin-bottom: 0px; margin-top: 0px;&quot;&gt;&lt;span style=&quot;font-size: 17px;&quot;&gt;As informações não estão centralizadas e disponíveis fácilmente&lt;/span&gt;&lt;/p&gt;&lt;p&gt;&lt;/p&gt;" style="rounded=1;whiteSpace=wrap;html=1;strokeWidth=3;" parent="1abh_bCQiPCxr0m5jgYK-60" vertex="1">
          <mxGeometry y="680" width="321" height="90" as="geometry" />
        </mxCell>
        <mxCell id="1abh_bCQiPCxr0m5jgYK-58" style="edgeStyle=orthogonalEdgeStyle;rounded=0;orthogonalLoop=1;jettySize=auto;html=1;exitX=0.5;exitY=1;exitDx=0;exitDy=0;" parent="1abh_bCQiPCxr0m5jgYK-60" source="1abh_bCQiPCxr0m5jgYK-57" target="1abh_bCQiPCxr0m5jgYK-57" edge="1">
          <mxGeometry relative="1" as="geometry" />
        </mxCell>
        <mxCell id="1abh_bCQiPCxr0m5jgYK-59" style="edgeStyle=orthogonalEdgeStyle;rounded=0;orthogonalLoop=1;jettySize=auto;html=1;exitX=0.5;exitY=1;exitDx=0;exitDy=0;" parent="1abh_bCQiPCxr0m5jgYK-60" source="1abh_bCQiPCxr0m5jgYK-57" target="1abh_bCQiPCxr0m5jgYK-57" edge="1">
          <mxGeometry relative="1" as="geometry" />
        </mxCell>
        <mxCell id="B77oZFhFYQXpQ9WjY_KR-6" value="" style="group" parent="1" vertex="1" connectable="0">
          <mxGeometry x="91" y="870" width="643" height="261" as="geometry" />
        </mxCell>
        <mxCell id="1abh_bCQiPCxr0m5jgYK-98" value="&lt;h1 style=&quot;margin-top: 0px; font-size: 22px; margin-bottom: 5px;&quot;&gt;&lt;p style=&quot;font-weight: 400; line-height: 14.4px; margin-bottom: 5px; margin-top: 5px;&quot;&gt;&lt;b style=&quot;background-color: initial;&quot;&gt;&lt;font color=&quot;#000066&quot; style=&quot;font-size: 22px;&quot;&gt;PROBLEMA:&lt;/font&gt;&lt;/b&gt;&lt;/p&gt;&lt;p style=&quot;font-weight: 400; line-height: 14.4px; padding: 5px; margin-top: 0px; margin-bottom: 5px;&quot;&gt;&lt;span style=&quot;background-color: initial;&quot;&gt;&lt;font color=&quot;#004c99&quot; style=&quot;font-size: 22px;&quot;&gt;&lt;u style=&quot;&quot;&gt;Acontecem muitos atrazos nas etapas da construção&lt;/u&gt;&lt;/font&gt;&lt;/span&gt;&lt;/p&gt;&lt;/h1&gt;" style="text;html=1;whiteSpace=wrap;overflow=hidden;rounded=0;align=center;spacing=0;verticalAlign=top;fontSize=13;strokeColor=none;fontStyle=0" parent="B77oZFhFYQXpQ9WjY_KR-6" vertex="1">
          <mxGeometry x="49.25" width="540" height="80" as="geometry" />
        </mxCell>
        <mxCell id="1abh_bCQiPCxr0m5jgYK-133" style="edgeStyle=orthogonalEdgeStyle;rounded=1;orthogonalLoop=1;jettySize=auto;html=1;endArrow=blockThin;endFill=0;strokeWidth=2;jumpSize=6;shape=flexArrow;shadow=0;flowAnimation=0;opacity=40;" parent="B77oZFhFYQXpQ9WjY_KR-6" edge="1">
          <mxGeometry relative="1" as="geometry">
            <mxPoint x="486" y="94" as="sourcePoint" />
            <mxPoint x="552" y="94" as="targetPoint" />
          </mxGeometry>
        </mxCell>
        <mxCell id="1abh_bCQiPCxr0m5jgYK-132" style="edgeStyle=orthogonalEdgeStyle;rounded=1;orthogonalLoop=1;jettySize=auto;html=1;endArrow=blockThin;endFill=0;strokeWidth=2;jumpSize=6;shape=flexArrow;shadow=0;flowAnimation=0;opacity=40;" parent="B77oZFhFYQXpQ9WjY_KR-6" edge="1">
          <mxGeometry relative="1" as="geometry">
            <mxPoint x="354" y="94" as="sourcePoint" />
            <mxPoint x="418" y="94" as="targetPoint" />
          </mxGeometry>
        </mxCell>
        <mxCell id="1abh_bCQiPCxr0m5jgYK-131" style="edgeStyle=orthogonalEdgeStyle;rounded=1;orthogonalLoop=1;jettySize=auto;html=1;endArrow=blockThin;endFill=0;strokeWidth=2;jumpSize=6;shape=flexArrow;shadow=0;flowAnimation=0;opacity=40;" parent="B77oZFhFYQXpQ9WjY_KR-6" edge="1">
          <mxGeometry relative="1" as="geometry">
            <mxPoint x="220" y="94" as="sourcePoint" />
            <mxPoint x="287" y="94" as="targetPoint" />
          </mxGeometry>
        </mxCell>
        <mxCell id="B77oZFhFYQXpQ9WjY_KR-1" value="" style="group" parent="B77oZFhFYQXpQ9WjY_KR-6" vertex="1" connectable="0">
          <mxGeometry x="529" y="69" width="114" height="187" as="geometry" />
        </mxCell>
        <mxCell id="1abh_bCQiPCxr0m5jgYK-104" value="&lt;h1 style=&quot;margin-top: 0px; font-size: 12px;&quot;&gt;&lt;span style=&quot;font-size: 12px; font-weight: 400;&quot;&gt;As informações não estão centralizadas e disponíveis fácilmente&lt;/span&gt;&lt;br style=&quot;font-size: 12px;&quot;&gt;&lt;/h1&gt;" style="text;html=1;whiteSpace=wrap;overflow=hidden;rounded=0;align=center;spacing=0;verticalAlign=top;fontSize=12;" parent="B77oZFhFYQXpQ9WjY_KR-1" vertex="1">
          <mxGeometry y="61" width="114" height="100" as="geometry" />
        </mxCell>
        <mxCell id="1abh_bCQiPCxr0m5jgYK-109" value="&lt;font style=&quot;font-size: 29px;&quot;&gt;&lt;b&gt;5&lt;/b&gt;&lt;/font&gt;" style="ellipse;whiteSpace=wrap;html=1;aspect=fixed;fillColor=#f8cecc;strokeColor=#b85450;" parent="B77oZFhFYQXpQ9WjY_KR-1" vertex="1">
          <mxGeometry x="32" width="50" height="50" as="geometry" />
        </mxCell>
        <mxCell id="1abh_bCQiPCxr0m5jgYK-127" value="&lt;div style=&quot;margin-bottom: 5px;&quot;&gt;&lt;u&gt;&amp;nbsp; &amp;nbsp; &amp;nbsp; &amp;nbsp; &amp;nbsp; &amp;nbsp; &amp;nbsp; &amp;nbsp; &amp;nbsp; &amp;nbsp; &amp;nbsp; &amp;nbsp; &amp;nbsp;&amp;nbsp;&lt;/u&gt;&lt;/div&gt;5) CAUSA RAIZ" style="text;html=1;align=center;verticalAlign=middle;resizable=0;points=[];autosize=1;strokeColor=none;fillColor=none;spacing=0;" parent="B77oZFhFYQXpQ9WjY_KR-1" vertex="1">
          <mxGeometry x="2" y="147" width="110" height="40" as="geometry" />
        </mxCell>
        <mxCell id="B77oZFhFYQXpQ9WjY_KR-2" value="" style="group" parent="B77oZFhFYQXpQ9WjY_KR-6" vertex="1" connectable="0">
          <mxGeometry x="397" y="69" width="110" height="171" as="geometry" />
        </mxCell>
        <mxCell id="1abh_bCQiPCxr0m5jgYK-103" value="&lt;h1 style=&quot;margin-top: 0px; font-size: 12px;&quot;&gt;&lt;span style=&quot;font-size: 12px; font-weight: 400;&quot;&gt;Encontrar o meio de contato é demorado&lt;/span&gt;&lt;br style=&quot;font-size: 12px;&quot;&gt;&lt;/h1&gt;" style="text;html=1;whiteSpace=wrap;overflow=hidden;rounded=0;align=center;spacing=0;verticalAlign=top;fontSize=12;" parent="B77oZFhFYQXpQ9WjY_KR-2" vertex="1">
          <mxGeometry x="7" y="61" width="96" height="80" as="geometry" />
        </mxCell>
        <mxCell id="1abh_bCQiPCxr0m5jgYK-108" value="&lt;font style=&quot;font-size: 29px;&quot;&gt;&lt;b&gt;4&lt;/b&gt;&lt;/font&gt;" style="ellipse;whiteSpace=wrap;html=1;aspect=fixed;fillColor=#fff2cc;strokeColor=#d6b656;" parent="B77oZFhFYQXpQ9WjY_KR-2" vertex="1">
          <mxGeometry x="30" width="50" height="50" as="geometry" />
        </mxCell>
        <mxCell id="1abh_bCQiPCxr0m5jgYK-126" value="&lt;div style=&quot;margin-bottom: 5px;&quot;&gt;&lt;u&gt;&amp;nbsp; &amp;nbsp; &amp;nbsp; &amp;nbsp; &amp;nbsp; &amp;nbsp; &amp;nbsp; &amp;nbsp; &amp;nbsp; &amp;nbsp; &amp;nbsp; &amp;nbsp; &amp;nbsp;&amp;nbsp;&lt;/u&gt;&lt;/div&gt;4) POR QUÊ" style="text;html=1;align=center;verticalAlign=middle;resizable=0;points=[];autosize=1;strokeColor=none;fillColor=none;spacing=0;" parent="B77oZFhFYQXpQ9WjY_KR-2" vertex="1">
          <mxGeometry y="131" width="110" height="40" as="geometry" />
        </mxCell>
        <mxCell id="B77oZFhFYQXpQ9WjY_KR-3" value="" style="group" parent="B77oZFhFYQXpQ9WjY_KR-6" vertex="1" connectable="0">
          <mxGeometry x="260" y="69" width="116" height="192" as="geometry" />
        </mxCell>
        <mxCell id="1abh_bCQiPCxr0m5jgYK-102" value="&lt;h1 style=&quot;margin-top: 0px; font-size: 12px;&quot;&gt;&lt;span style=&quot;font-size: 12px; font-weight: 400;&quot;&gt;É difícil em entrar em contato com os profissionais e responsáveis&lt;/span&gt;&lt;br style=&quot;font-size: 12px;&quot;&gt;&lt;/h1&gt;" style="text;html=1;whiteSpace=wrap;overflow=hidden;rounded=0;align=center;spacing=0;verticalAlign=top;fontSize=12;" parent="B77oZFhFYQXpQ9WjY_KR-3" vertex="1">
          <mxGeometry y="61" width="116" height="100" as="geometry" />
        </mxCell>
        <mxCell id="1abh_bCQiPCxr0m5jgYK-107" value="&lt;font style=&quot;font-size: 29px;&quot;&gt;&lt;b&gt;3&lt;/b&gt;&lt;/font&gt;" style="ellipse;whiteSpace=wrap;html=1;aspect=fixed;fillColor=#ffe6cc;strokeColor=#d79b00;" parent="B77oZFhFYQXpQ9WjY_KR-3" vertex="1">
          <mxGeometry x="34" width="50" height="50" as="geometry" />
        </mxCell>
        <mxCell id="1abh_bCQiPCxr0m5jgYK-125" value="&lt;div style=&quot;margin-bottom: 5px;&quot;&gt;&lt;u&gt;&amp;nbsp; &amp;nbsp; &amp;nbsp; &amp;nbsp; &amp;nbsp; &amp;nbsp; &amp;nbsp; &amp;nbsp; &amp;nbsp; &amp;nbsp; &amp;nbsp; &amp;nbsp; &amp;nbsp;&amp;nbsp;&lt;/u&gt;&lt;/div&gt;3) POR QUÊ" style="text;html=1;align=center;verticalAlign=middle;resizable=0;points=[];autosize=1;strokeColor=none;fillColor=none;spacing=0;" parent="B77oZFhFYQXpQ9WjY_KR-3" vertex="1">
          <mxGeometry y="152" width="110" height="40" as="geometry" />
        </mxCell>
        <mxCell id="B77oZFhFYQXpQ9WjY_KR-4" value="" style="group" parent="B77oZFhFYQXpQ9WjY_KR-6" vertex="1" connectable="0">
          <mxGeometry x="132" y="69" width="110" height="173" as="geometry" />
        </mxCell>
        <mxCell id="1abh_bCQiPCxr0m5jgYK-101" value="&lt;h1 style=&quot;text-align: center; margin-top: 0px; font-size: 12px;&quot;&gt;&lt;span style=&quot;font-size: 12px; font-weight: 400;&quot;&gt;Falta de comunicação entre os envolvidos&lt;/span&gt;&lt;br style=&quot;font-size: 12px;&quot;&gt;&lt;/h1&gt;" style="text;html=1;whiteSpace=wrap;overflow=hidden;rounded=0;spacing=0;fontSize=12;" parent="B77oZFhFYQXpQ9WjY_KR-4" vertex="1">
          <mxGeometry x="7" y="61" width="95.99" height="80" as="geometry" />
        </mxCell>
        <mxCell id="1abh_bCQiPCxr0m5jgYK-106" value="&lt;font style=&quot;font-size: 29px;&quot;&gt;&lt;b&gt;2&lt;/b&gt;&lt;/font&gt;" style="ellipse;whiteSpace=wrap;html=1;aspect=fixed;fillColor=#d5e8d4;strokeColor=#82b366;" parent="B77oZFhFYQXpQ9WjY_KR-4" vertex="1">
          <mxGeometry x="29.99000000000001" width="50" height="50" as="geometry" />
        </mxCell>
        <mxCell id="1abh_bCQiPCxr0m5jgYK-124" value="&lt;div style=&quot;margin-bottom: 5px;&quot;&gt;&lt;u&gt;&amp;nbsp; &amp;nbsp; &amp;nbsp; &amp;nbsp; &amp;nbsp; &amp;nbsp; &amp;nbsp; &amp;nbsp; &amp;nbsp; &amp;nbsp; &amp;nbsp; &amp;nbsp; &amp;nbsp;&amp;nbsp;&lt;/u&gt;&lt;/div&gt;2) POR QUÊ" style="text;html=1;align=center;verticalAlign=middle;resizable=0;points=[];autosize=1;strokeColor=none;fillColor=none;spacing=0;" parent="B77oZFhFYQXpQ9WjY_KR-4" vertex="1">
          <mxGeometry y="133" width="110" height="40" as="geometry" />
        </mxCell>
        <mxCell id="B77oZFhFYQXpQ9WjY_KR-5" value="" style="group" parent="B77oZFhFYQXpQ9WjY_KR-6" vertex="1" connectable="0">
          <mxGeometry y="69" width="110" height="125" as="geometry" />
        </mxCell>
        <mxCell id="1abh_bCQiPCxr0m5jgYK-100" value="&lt;h1 style=&quot;margin-top: 0px; line-height: 91%; margin-bottom: 0px; font-size: 12px;&quot;&gt;&lt;span style=&quot;font-size: 12px; font-weight: 400;&quot;&gt;O retrabalho é frequente&lt;/span&gt;&lt;br style=&quot;font-size: 12px;&quot;&gt;&lt;/h1&gt;" style="text;html=1;whiteSpace=wrap;overflow=hidden;rounded=0;align=center;spacing=0;verticalAlign=top;fontSize=12;" parent="B77oZFhFYQXpQ9WjY_KR-5" vertex="1">
          <mxGeometry x="7" y="61" width="96" height="60" as="geometry" />
        </mxCell>
        <mxCell id="1abh_bCQiPCxr0m5jgYK-105" value="&lt;font style=&quot;font-size: 29px;&quot;&gt;&lt;b&gt;1&lt;/b&gt;&lt;/font&gt;" style="ellipse;whiteSpace=wrap;html=1;aspect=fixed;fillColor=#dae8fc;strokeColor=#6c8ebf;" parent="B77oZFhFYQXpQ9WjY_KR-5" vertex="1">
          <mxGeometry x="30" width="50" height="50" as="geometry" />
        </mxCell>
        <mxCell id="1abh_bCQiPCxr0m5jgYK-123" value="&lt;div style=&quot;margin-bottom: 5px;&quot;&gt;&lt;u&gt;&amp;nbsp; &amp;nbsp; &amp;nbsp; &amp;nbsp; &amp;nbsp; &amp;nbsp; &amp;nbsp; &amp;nbsp; &amp;nbsp; &amp;nbsp; &amp;nbsp; &amp;nbsp; &amp;nbsp;&amp;nbsp;&lt;/u&gt;&lt;/div&gt;1) POR QUÊ" style="text;html=1;align=center;verticalAlign=middle;resizable=0;points=[];autosize=1;strokeColor=none;fillColor=none;spacing=0;" parent="B77oZFhFYQXpQ9WjY_KR-5" vertex="1">
          <mxGeometry y="85" width="110" height="40" as="geometry" />
        </mxCell>
        <mxCell id="D_JiFewnWVKEHLU37Grs-2" style="edgeStyle=orthogonalEdgeStyle;rounded=1;orthogonalLoop=1;jettySize=auto;html=1;endArrow=blockThin;endFill=0;strokeWidth=2;jumpSize=6;shape=flexArrow;shadow=0;flowAnimation=0;opacity=40;" edge="1" parent="B77oZFhFYQXpQ9WjY_KR-5">
          <mxGeometry relative="1" as="geometry">
            <mxPoint x="89" y="24.75999999999999" as="sourcePoint" />
            <mxPoint x="156" y="24.75999999999999" as="targetPoint" />
          </mxGeometry>
        </mxCell>
      </root>
    </mxGraphModel>
  </diagram>
</mxfile>
